HIERARCHY
ROOT Hips
{
	OFFSET 305.588898 92.559578 -272.186401
	CHANNELS 6 Xposition Yposition Zposition Zrotation Yrotation Xrotation 
	JOINT LeftUpLeg
	{
		OFFSET 0.103462 1.857825 10.548491
		CHANNELS 3 Zrotation Yrotation Xrotation
		JOINT LeftLeg
		{
			OFFSET 43.500000 -0.000038 -0.000006
			CHANNELS 3 Zrotation Yrotation Xrotation
			JOINT LeftFoot
			{
				OFFSET 42.372196 0.000034 -0.000012
				CHANNELS 3 Zrotation Yrotation Xrotation
				JOINT LeftToe
				{
					OFFSET 17.299999 -0.000001 -0.000008
					CHANNELS 3 Zrotation Yrotation Xrotation
					End Site
					{
						OFFSET 0.000000 0.000000 0.000000
					}
				}
			}
		}
	}
	JOINT RightUpLeg
	{
		OFFSET 0.103456 1.857821 -10.548490
		CHANNELS 3 Zrotation Yrotation Xrotation
		JOINT RightLeg
		{
			OFFSET 43.500038 -0.000011 0.000011
			CHANNELS 3 Zrotation Yrotation Xrotation
			JOINT RightFoot
			{
				OFFSET 42.372265 0.000004 0.000029
				CHANNELS 3 Zrotation Yrotation Xrotation
				JOINT RightToe
				{
					OFFSET 17.299988 -0.000007 0.000004
					CHANNELS 3 Zrotation Yrotation Xrotation
					End Site
					{
						OFFSET 0.000000 0.000000 0.000000
					}
				}
			}
		}
	}
	JOINT Spine
	{
		OFFSET 6.901963 -2.603729 -0.000012
		CHANNELS 3 Zrotation Yrotation Xrotation
		JOINT Spine1
		{
			OFFSET 12.588106 0.000010 0.000003
			CHANNELS 3 Zrotation Yrotation Xrotation
			JOINT Spine2
			{
				OFFSET 12.343199 -0.000001 -0.000002
				CHANNELS 3 Zrotation Yrotation Xrotation
				JOINT Neck
				{
					OFFSET 25.832895 -0.000006 0.000023
					CHANNELS 3 Zrotation Yrotation Xrotation
					JOINT Head
					{
						OFFSET 11.766605 0.000011 -0.000027
						CHANNELS 3 Zrotation Yrotation Xrotation
						End Site
						{
							OFFSET 0.000000 0.000000 0.000000
						}
					}
				}
				JOINT LeftShoulder
				{
					OFFSET 19.745903 -1.480368 6.000127
					CHANNELS 3 Zrotation Yrotation Xrotation
					JOINT LeftArm
					{
						OFFSET 11.284108 0.000010 -0.000010
						CHANNELS 3 Zrotation Yrotation Xrotation
						JOINT LeftForeArm
						{
							OFFSET 33.000069 0.000000 0.000030
							CHANNELS 3 Zrotation Yrotation Xrotation
							JOINT LeftHand
							{
								OFFSET 25.199997 0.000019 0.000001
								CHANNELS 3 Zrotation Yrotation Xrotation
								End Site
								{
									OFFSET 0.000000 0.000000 0.000000
								}
							}
						}
					}
				}
				JOINT RightShoulder
				{
					OFFSET 19.746101 -1.480371 -6.000072
					CHANNELS 3 Zrotation Yrotation Xrotation
					JOINT RightArm
					{
						OFFSET 11.284140 -0.000007 -0.000004
						CHANNELS 3 Zrotation Yrotation Xrotation
						JOINT RightForeArm
						{
							OFFSET 33.000080 0.000016 -0.000002
							CHANNELS 3 Zrotation Yrotation Xrotation
							JOINT RightHand
							{
								OFFSET 25.199766 0.000146 0.000422
								CHANNELS 3 Zrotation Yrotation Xrotation
								End Site
								{
									OFFSET 0.000000 0.000000 0.000000
								}
							}
						}
					}
				}
			}
		}
	}
}
MOTION
Frames: 15
Frame Time: 0.033333
268.399597 79.147499 20.135370 106.490702 -0.814356 162.056033 151.675060 -0.773806 167.087027 -54.809922 -1.817263 7.799418 73.009531 -3.358352 6.633416 21.454558 0.003095 0.000001 178.932132 4.998394 -171.274889 -85.325243 -5.261656 10.263991 60.175100 -5.289103 4.833916 21.454562 -0.003105 -0.000020 10.137344 -1.878736 1.338556 10.225248 -3.868376 2.507057 9.906708 -3.853035 2.530394 10.098726 -14.786311 -5.266571 -20.866848 15.626050 -13.158917 -158.187277 -72.167103 -23.851309 -5.627862 54.112177 16.505140 -93.928133 -4.071939 2.764338 9.052280 3.334709 58.159689 -172.638413 75.553497 8.972580 -11.873752 -61.280614 -25.057118 -30.986809 13.695380 -1.191562 11.793510 6.081986 -18.961766 
269.525696 81.600731 20.401890 105.447001 -0.377746 163.034061 154.917365 -0.681700 167.217893 -49.083915 -1.794346 8.422826 71.502170 -3.663129 6.837034 21.454551 0.003097 0.000000 178.614788 6.196396 -165.575643 -80.925891 -5.151338 12.946743 56.943014 -6.178800 7.112795 21.454543 -0.003116 -0.000017 9.879551 -1.678056 1.096128 9.719795 -3.442210 2.048233 9.401312 -3.429645 2.069001 10.154195 -14.879902 -7.648980 -20.736652 17.417771 -16.353513 -158.321135 -73.364619 -23.692796 -10.621035 53.132199 17.046236 -94.600996 -4.294171 2.809830 9.997065 3.693904 68.321460 -169.306497 75.107520 12.380012 -6.581297 -60.419751 -28.791365 -26.716522 12.980319 -1.066641 12.642421 2.558588 -25.335415 
270.429291 83.940033 20.673290 104.121692 0.066171 163.189940 158.114822 -1.330902 167.263779 -42.768879 -2.778086 8.940530 69.572553 -3.821549 7.098948 21.454553 0.003091 0.000000 178.822248 7.296099 -159.965066 -75.541523 -4.846848 15.471999 56.204244 -8.056729 7.154229 21.454563 -0.003108 -0.000017 9.504580 -1.508285 0.894348 8.977074 -3.081354 1.669578 8.658623 -3.071079 1.688173 9.848632 -14.986446 -9.794108 -20.353808 19.277319 -19.305349 -157.108298 -74.335421 -24.918007 -15.262708 51.679581 18.155876 -95.626951 -4.392306 2.862362 10.972189 4.155510 74.319999 -165.480198 74.847378 16.297303 -0.081388 -58.932744 -34.769734 -26.818888 13.229843 -1.084392 12.250665 0.614431 -28.532921 
271.179199 86.007889 20.875031 102.405095 0.513687 162.621941 160.768883 -2.031695 166.685617 -36.424378 -3.313396 9.249724 67.592365 -3.967308 6.993954 21.454551 0.003091 -0.000000 179.294679 8.263302 -154.614760 -70.194517 -4.261286 17.521889 57.396135 -9.288543 8.035953 21.454560 -0.003107 -0.000019 9.009463 -1.345270 0.719999 7.992274 -2.736987 1.345833 7.673880 -2.728676 1.362353 9.345644 -14.613921 -11.350098 -20.642409 21.011200 -21.707057 -156.819449 -75.215689 -25.196423 -18.270594 50.378738 19.305419 -96.398913 -4.300057 2.890260 11.300787 4.424076 74.358432 -162.048014 73.972404 19.820996 4.638586 -56.079159 -39.880416 -28.778025 13.151499 -1.114048 12.066894 0.538359 -26.910932 
271.805298 87.748833 20.981001 100.998000 0.779773 160.583007 163.541858 -2.174699 166.226888 -29.977027 -3.410686 8.468644 65.752735 -3.723381 5.930082 21.454550 0.003088 0.000000 179.771194 9.023194 -150.190177 -65.235772 -4.159567 19.688333 56.695174 -10.510404 8.929877 21.454558 -0.003115 -0.000013 8.570912 -1.269491 0.692938 7.116071 -2.579096 1.307001 6.797715 -2.571024 1.322559 8.757430 -13.753609 -13.000080 -21.186618 21.492526 -23.717099 -158.555082 -76.300398 -23.402841 -19.311938 49.854056 20.243347 -96.796396 -4.152630 2.897618 9.846298 4.366307 70.033461 -159.684591 73.917701 22.244212 7.870629 -53.387624 -44.338115 -31.741477 13.405800 -1.188211 11.789557 -0.625052 -22.484662 
272.387909 89.159302 21.002310 99.883635 1.055826 157.103025 166.498620 -2.156693 166.428392 -23.658035 -3.525664 6.420989 64.090527 -2.843629 4.247057 21.454555 0.003094 -0.000000 -179.916417 9.755403 -147.100172 -61.121150 -4.476837 20.824846 55.462471 -10.996399 9.639251 21.454558 -0.003107 -0.000015 8.206064 -1.197423 0.730426 6.385905 -2.433194 1.394201 6.067597 -2.424598 1.408881 7.734798 -13.057651 -14.331180 -21.036781 21.255381 -24.982511 -160.361777 -76.595920 -21.553637 -19.020986 49.453363 21.143937 -97.063108 -3.915409 2.892870 9.910247 5.006414 61.718149 -158.187400 74.330299 23.771316 8.550518 -51.226146 -45.687012 -34.324252 13.649462 -1.259455 11.540093 -2.054865 -19.384632 
272.960907 90.128723 20.956100 98.915940 1.465240 151.738035 169.103230 -2.445802 165.674872 -18.810356 -3.219742 3.803035 63.200847 -1.673955 2.396130 21.454557 0.003096 0.000000 179.933192 10.780302 -147.095651 -58.747167 -4.318311 19.752624 55.400904 -10.446814 9.078413 21.454557 -0.003119 -0.000014 7.894026 -1.087054 0.846340 5.760476 -2.214710 1.638079 5.442257 -2.204642 1.651431 6.097037 -12.946251 -14.762223 -20.559488 21.522645 -25.557352 -159.067019 -76.295925 -22.880089 -18.193010 50.123418 21.588394 -96.794750 -3.703986 2.866137 9.712513 5.950025 55.552544 -156.969987 75.143207 25.002333 6.077608 -49.827043 -43.761186 -36.486553 13.558989 -1.303609 11.680371 -2.686134 -18.190105 
273.511505 90.678391 20.826420 98.389715 1.931110 144.245973 171.770747 -2.992003 163.251753 -15.434527 -3.005090 0.920717 63.072351 -0.296239 0.615267 21.454551 0.003088 -0.000001 178.903650 12.430492 -150.597229 -58.449091 -3.933604 17.482643 55.951629 -9.023854 8.532973 21.454565 -0.003109 -0.000012 7.715693 -1.024860 1.055199 5.400557 -2.097586 2.062038 5.082458 -2.084963 2.074670 4.289147 -12.738591 -14.557257 -20.232448 21.432015 -25.370529 -155.168593 -75.648696 -26.875126 -16.523903 51.342023 22.018438 -96.495827 -3.612042 2.846410 10.123178 6.608129 52.783729 -158.241918 75.998408 23.686403 0.712373 -48.479805 -39.949780 -37.979441 13.352640 -1.326534 11.456026 -2.673860 -18.836367 
273.913391 90.912666 20.704241 98.055125 2.370253 136.076056 174.189549 -3.513001 161.056585 -13.110002 -3.104452 -2.451749 63.273800 1.416071 -1.250303 21.454555 0.003092 -0.000000 176.942853 14.637599 -155.497671 -59.501473 -3.050154 14.663557 56.557289 -7.641790 7.005871 21.454548 -0.003118 -0.000010 7.635189 -0.982106 1.183821 5.237913 -2.016471 2.322598 4.919883 -2.002280 2.334732 2.851177 -11.707048 -14.135317 -20.281439 20.578098 -24.584040 -154.978017 -74.923630 -27.086208 -12.795575 52.293305 23.263761 -96.437449 -3.546773 2.839249 10.483055 6.573209 52.610659 -159.245697 76.132403 22.658821 -6.925381 -47.421075 -33.831843 -39.319367 13.753118 -1.386570 11.792915 -2.665301 -22.589693 
274.207794 90.867264 20.630659 98.029108 2.790079 128.135005 176.089052 -3.573396 160.785139 -12.031634 -3.073306 -6.841253 63.803058 3.659940 -3.669930 21.454545 0.003086 -0.000001 174.532247 17.336699 -159.438936 -61.161045 -2.624263 10.291816 58.670355 -5.858083 3.857332 21.454562 -0.003113 -0.000016 7.645124 -0.917750 1.072698 5.260845 -1.883050 2.103089 4.942789 -1.870174 2.114424 1.977268 -10.650670 -13.311217 -20.494642 19.788532 -23.378841 -154.160498 -74.624495 -27.929796 -9.456912 54.133282 24.763691 -96.174849 -3.602823 2.831482 11.784895 5.534606 55.265519 -163.503691 76.315275 18.307395 -14.009680 -46.892862 -26.579061 -41.382337 14.794873 -1.509311 11.612460 -2.171576 -25.036137 
274.284302 90.579468 20.551950 98.376806 3.094662 120.650019 176.992031 -3.266688 161.743005 -12.804105 -2.871746 -11.669283 64.733316 6.074820 -6.552954 21.454545 0.003094 -0.000000 171.689659 20.816999 -162.140235 -62.670681 -2.102777 5.076348 65.572937 -3.084858 1.450869 21.454548 -0.003117 -0.000020 7.790888 -0.912654 0.915466 5.555090 -1.867988 1.786543 5.236981 -1.857016 1.797797 0.844665 -9.978952 -12.611896 -20.308685 19.230667 -22.370821 -154.132931 -74.445305 -27.962197 -8.193737 55.290989 25.297453 -95.460739 -3.743039 2.809533 11.952371 5.420885 57.042479 -167.065498 76.021385 14.670200 -19.199279 -47.726312 -17.857320 -46.089918 16.582970 -1.762447 10.800115 -1.259905 -29.925357 
274.016998 90.190918 20.590380 98.796152 3.510078 114.582031 177.173659 -3.505096 160.339551 -15.118697 -2.611008 -14.201881 65.879558 7.129666 -8.753140 21.454551 0.003092 0.000001 168.994316 22.992006 -162.598951 -62.302042 -2.021311 4.365178 72.342352 -3.560867 -1.538145 21.454560 -0.003111 -0.000016 8.043572 -0.894844 0.634159 6.065355 -1.821593 1.220889 5.747170 -1.814046 1.231878 -0.138756 -9.442978 -12.292753 -20.151677 18.743096 -21.789094 -155.739679 -74.807893 -26.309491 -9.040775 55.507230 24.947696 -94.834110 -3.897314 2.792440 11.973113 5.776580 58.156499 -168.106802 75.693113 13.606721 -22.688444 -49.987477 -9.238065 -53.586553 16.903934 -2.028050 9.280784 0.330797 -32.522277 
273.601288 90.082153 20.756821 98.386723 3.882407 109.385992 177.434258 -4.272511 158.015115 -16.412857 -1.898368 -15.695677 66.277465 7.530168 -10.668740 21.454551 0.003089 -0.000000 166.897161 23.554389 -161.177725 -59.467985 -1.485974 9.257182 75.653101 -6.272800 0.947318 21.454558 -0.003106 -0.000018 8.192691 -0.722419 0.375611 6.368500 -1.464403 0.711098 6.050319 -1.459939 0.719931 -0.147397 -8.981017 -12.297034 -20.504759 18.706879 -21.771464 -158.792800 -75.902813 -23.166586 -10.913777 55.507267 24.440630 -94.646225 -3.951329 2.787858 12.583740 5.823842 59.839506 -168.353931 74.899807 13.355097 -23.315336 -52.179070 -5.219613 -61.906062 16.058495 -2.275774 8.197766 1.039095 -27.874533 
273.005798 90.118881 20.981819 97.709155 3.909039 104.619995 177.933121 -5.004899 154.105324 -16.441503 -0.657380 -16.089231 65.955981 7.243082 -12.162688 21.454551 0.003092 -0.000000 165.201512 22.454305 -156.120830 -54.339865 -3.385826 15.648790 76.739696 -10.445787 2.084450 21.454555 -0.003115 -0.000020 8.232992 -0.504159 0.162045 6.452075 -1.016593 0.295830 6.133919 -1.014642 0.301971 0.648812 -8.957390 -12.504452 -20.891150 18.900793 -22.091245 -161.373792 -77.004188 -20.515303 -13.460478 54.995802 23.355038 -94.624280 -3.983311 2.789696 12.040395 6.750789 59.177927 -166.897407 74.067814 14.849195 -22.263031 -54.154354 -4.526258 -68.993039 13.978096 -2.414639 7.191580 0.197269 -22.684858 
272.127014 90.104874 21.350639 97.090395 3.445581 100.432003 178.304370 -5.902402 151.191797 -16.101225 -0.099213 -16.693633 65.391637 7.144232 -13.516704 21.454553 0.003099 0.000001 164.338491 20.999499 -149.310244 -47.874415 -4.878132 20.301148 75.056614 -12.709871 5.868267 21.454560 -0.003113 -0.000018 8.139089 -0.322124 -0.110456 6.266098 -0.637865 -0.238150 5.947975 -0.639142 -0.234287 1.095303 -9.413753 -12.611126 -20.457716 19.302857 -22.319294 -163.546885 -77.897515 -18.290126 -14.887680 54.443059 22.585815 -94.631014 -4.005859 2.790989 11.339509 7.075370 57.935850 -164.505639 73.393525 17.306093 -20.109337 -55.890072 -6.542749 -74.382727 11.845758 -2.491478 7.779977 -1.192100 -20.689369 
